<svg width="123" height="39" viewBox="0 0 123 39" fill="none" xmlns="http://www.w3.org/2000/svg">
<path d="M0 0V8.39852H7.50518V35.6394H19.1817V8.39852H34.2432V0H0Z" fill="#045063"/>
<path d="M54.6583 6.30619H48.3488C48.4538 6.77779 48.5265 7.21507 48.5615 7.6193C48.5979 8.02352 48.5521 8.35911 48.4269 8.62733C48.3016 8.89808 48.062 9.11545 47.7052 9.28451C47.3497 9.45357 46.8138 9.55527 46.1002 9.58705H42.9993L47.9718 13.2734C48.1172 13.2734 48.2599 13.2721 48.3999 13.2645C49.6656 13.2238 50.6997 12.9887 51.5035 12.5654C52.3935 12.0963 53.0802 11.5065 53.5609 10.7985C54.043 10.0917 54.3621 9.33536 54.5236 8.52818C54.6852 7.72099 54.7283 6.98118 54.6583 6.30619ZM37.7063 9.58705V26.0955C37.7063 26.7006 37.5367 27.1798 37.1987 27.5332C36.8581 27.8879 36.4932 28.0633 36.1013 28.0633C35.6018 28.0633 35.148 27.8116 34.7374 27.3069C34.3281 26.8023 34.1234 25.9773 34.1234 24.8333V11.7455H23.4271V27.4074C23.4271 29.1234 23.6412 30.5459 24.0694 31.6734C24.4975 32.8022 25.059 33.7085 25.7538 34.4C26.4499 35.089 27.243 35.5771 28.1343 35.8631C28.6877 36.0411 29.2479 36.1618 29.8134 36.2292V36.219C29.8134 34.3911 31.3833 32.9089 33.3196 32.9089C34.4573 32.9089 35.4672 33.4212 36.1081 34.2131C36.2454 34.0644 36.3787 33.9068 36.5053 33.7415C36.9846 33.1199 37.3872 32.3534 37.7077 31.4446V35.736H48.4013V9.58577H37.7077L37.7063 9.58705Z" fill="#045063"/>
<path d="M88.1596 19.8669C87.3221 18.6389 86.2786 17.6119 85.0318 16.7869C83.7836 15.9632 82.4385 15.2983 80.9951 14.7937C79.5517 14.2903 78.2052 13.8098 76.9584 13.356C75.7102 12.901 74.6681 12.4395 73.8319 11.9667C72.9944 11.4976 72.5757 10.9078 72.5757 10.201C72.5757 9.49426 72.8234 8.94893 73.3243 8.55996C73.8238 8.17353 74.3759 7.98031 74.9818 7.98031C75.6941 7.98031 76.3619 8.24979 76.9867 8.78749C77.6101 9.32646 77.9225 10.1336 77.9225 11.209V12.4205H89.1479V11.2586C89.1479 9.27561 88.7467 7.57481 87.9455 6.16129C87.143 4.74776 86.0928 3.58847 84.7908 2.67959C83.4901 1.76944 82.0117 1.10717 80.3528 0.685147C78.6953 0.265666 76.9934 0.0546551 75.2471 0.0546551C73.5007 0.0546551 71.7988 0.265666 70.1413 0.685147C68.4838 1.10717 67.004 1.76436 65.7033 2.65417C64.4026 3.54652 63.3511 4.69818 62.5486 6.11044C61.7461 7.52269 61.3462 9.2235 61.3462 11.2078C61.3462 13.0598 61.7649 14.5979 62.6024 15.8259C63.4399 17.0551 64.4834 18.0809 65.7302 18.9046C66.9784 19.7296 68.3235 20.3944 69.7669 20.8991C71.2104 21.4024 72.5541 21.8829 73.8023 22.3367C75.0505 22.7918 76.0926 23.2443 76.9301 23.6994C77.7663 24.1545 78.1864 24.7519 78.1864 25.4917C78.1864 26.2316 77.9198 26.7464 77.3839 27.1328C76.8493 27.5192 76.2434 27.7125 75.5662 27.7125C74.7812 27.7125 74.05 27.4442 73.3741 26.9053C72.6955 26.3676 72.3589 25.5604 72.3589 24.4837V22.9177H61.1307V24.4837C61.1307 26.4693 61.532 28.1675 62.3331 29.5811C63.1356 30.9946 64.2034 32.1462 65.5404 33.0386C66.8774 33.9309 68.3922 34.5869 70.0847 35.0076C71.7786 35.4271 73.5142 35.6381 75.2969 35.6381C77.0796 35.6381 78.8071 35.4271 80.4834 35.0076C82.1571 34.5869 83.6651 33.9309 85.0008 33.0386C86.3379 32.1462 87.4083 30.9946 88.2094 29.5811C89.0119 28.1675 89.4118 26.468 89.4118 24.4837C89.4118 22.6329 88.9917 21.0935 88.1556 19.8656L88.1596 19.8669Z" fill="#045063"/>
<path d="M106.037 9.71417V26.2011C106.037 26.8061 105.866 27.2866 105.528 27.6387C105.19 27.9908 104.826 28.1688 104.433 28.1688C103.935 28.1688 103.481 27.9158 103.073 27.4112C102.662 26.9078 102.459 26.0854 102.459 24.9426V9.71544H91.7762V27.5129C91.7762 29.2277 91.9917 30.6476 92.4185 31.7738C92.844 32.9 93.4054 33.8076 94.0989 34.4953C94.795 35.1856 95.5867 35.6737 96.4754 35.9572C97.3667 36.2432 98.2742 36.3856 99.2006 36.3856C99.9115 36.3856 100.608 36.3106 101.282 36.1593C101.958 36.008 102.599 35.7385 103.204 35.3508C103.81 34.9657 104.354 34.4598 104.834 33.8382C105.315 33.2166 105.716 32.4526 106.037 31.5424V35.8288H116.718V9.71289H106.037V9.71417ZM122.967 6.43459H116.666C116.771 6.90746 116.843 7.34346 116.878 7.74642C116.913 8.15064 116.869 8.48623 116.745 8.75571C116.62 9.0252 116.379 9.24511 116.023 9.4129C115.668 9.58069 115.135 9.68239 114.421 9.71544H111.323L116.29 13.3967C116.435 13.3967 116.579 13.3942 116.718 13.3903C117.982 13.3471 119.015 13.1132 119.816 12.6899C120.705 12.2196 121.392 11.6311 121.872 10.9256C122.353 10.2188 122.673 9.46375 122.834 8.65529C122.994 7.84938 123.038 7.10957 122.967 6.43713V6.43459ZM112.487 0.0559235H105.622C105.736 0.570742 105.816 1.04616 105.853 1.4847C105.891 1.92452 105.844 2.29062 105.708 2.58425C105.572 2.87789 105.31 3.11687 104.922 3.29992C104.534 3.48296 103.954 3.59355 103.177 3.62914H99.8011L99.7311 7.63964C99.8887 7.63964 105.528 7.6371 105.678 7.63328C107.056 7.58625 108.182 7.33075 109.054 6.87059C110.022 6.35831 110.771 5.71765 111.293 4.94733C111.817 4.17828 112.166 3.35457 112.341 2.47366C112.516 1.5953 112.563 0.790653 112.486 0.0571959L112.487 0.0559235Z" fill="#045063"/>
<path d="M0 0V8.39852H7.50518V35.6394H19.1817V8.39852H34.2432V0H0Z" fill="#045063"/>
<path d="M54.6583 6.30619H48.3488C48.4538 6.77779 48.5265 7.21507 48.5615 7.6193C48.5979 8.02352 48.5521 8.35911 48.4269 8.62733C48.3016 8.89808 48.062 9.11545 47.7052 9.28451C47.3497 9.45357 46.8138 9.55527 46.1002 9.58705H42.9993L47.9718 13.2734C48.1172 13.2734 48.2599 13.2721 48.3999 13.2645C49.6656 13.2238 50.6997 12.9887 51.5035 12.5654C52.3935 12.0963 53.0802 11.5065 53.5609 10.7985C54.043 10.0917 54.3621 9.33536 54.5236 8.52818C54.6852 7.72099 54.7283 6.98118 54.6583 6.30619ZM37.7063 9.58705V26.0955C37.7063 26.7006 37.5367 27.1798 37.1987 27.5332C36.8581 27.8879 36.4932 28.0633 36.1013 28.0633C35.6018 28.0633 35.148 27.8116 34.7374 27.3069C34.3281 26.8023 34.1234 25.9773 34.1234 24.8333V11.7455H23.4271V27.4074C23.4271 29.1234 23.6412 30.5459 24.0694 31.6734C24.4975 32.8022 25.059 33.7085 25.7538 34.4C26.4499 35.089 27.243 35.5771 28.1343 35.8631C28.6877 36.0411 29.2479 36.1618 29.8134 36.2292V36.219C29.8134 34.3911 31.3833 32.9089 33.3196 32.9089C34.4573 32.9089 35.4672 33.4212 36.1081 34.2131C36.2454 34.0644 36.3787 33.9068 36.5053 33.7415C36.9846 33.1199 37.3872 32.3534 37.7077 31.4446V35.736H48.4013V9.58577H37.7077L37.7063 9.58705Z" fill="#045063"/>
<path d="M88.1596 19.8669C87.3221 18.6389 86.2786 17.6119 85.0318 16.7869C83.7836 15.9632 82.4385 15.2983 80.9951 14.7937C79.5517 14.2903 78.2052 13.8098 76.9584 13.356C75.7102 12.901 74.6681 12.4395 73.8319 11.9667C72.9944 11.4976 72.5757 10.9078 72.5757 10.201C72.5757 9.49426 72.8234 8.94893 73.3243 8.55996C73.8238 8.17353 74.3759 7.98031 74.9818 7.98031C75.6941 7.98031 76.3619 8.24979 76.9867 8.78749C77.6101 9.32646 77.9225 10.1336 77.9225 11.209V12.4205H89.1479V11.2586C89.1479 9.27561 88.7467 7.57481 87.9455 6.16129C87.143 4.74776 86.0928 3.58847 84.7908 2.67959C83.4901 1.76944 82.0117 1.10717 80.3528 0.685147C78.6953 0.265666 76.9934 0.0546551 75.2471 0.0546551C73.5007 0.0546551 71.7988 0.265666 70.1413 0.685147C68.4838 1.10717 67.004 1.76436 65.7033 2.65417C64.4026 3.54652 63.3511 4.69818 62.5486 6.11044C61.7461 7.52269 61.3462 9.2235 61.3462 11.2078C61.3462 13.0598 61.7649 14.5979 62.6024 15.8259C63.4399 17.0551 64.4834 18.0809 65.7302 18.9046C66.9784 19.7296 68.3235 20.3944 69.7669 20.8991C71.2104 21.4024 72.5541 21.8829 73.8023 22.3367C75.0505 22.7918 76.0926 23.2443 76.9301 23.6994C77.7663 24.1545 78.1864 24.7519 78.1864 25.4917C78.1864 26.2316 77.9198 26.7464 77.3839 27.1328C76.8493 27.5192 76.2434 27.7125 75.5662 27.7125C74.7812 27.7125 74.05 27.4442 73.3741 26.9053C72.6955 26.3676 72.3589 25.5604 72.3589 24.4837V22.9177H61.1307V24.4837C61.1307 26.4693 61.532 28.1675 62.3331 29.5811C63.1356 30.9946 64.2034 32.1462 65.5404 33.0386C66.8774 33.9309 68.3922 34.5869 70.0847 35.0076C71.7786 35.4271 73.5142 35.6381 75.2969 35.6381C77.0796 35.6381 78.8071 35.4271 80.4834 35.0076C82.1571 34.5869 83.6651 33.9309 85.0008 33.0386C86.3379 32.1462 87.4083 30.9946 88.2094 29.5811C89.0119 28.1675 89.4118 26.468 89.4118 24.4837C89.4118 22.6329 88.9917 21.0935 88.1556 19.8656L88.1596 19.8669Z" fill="#045063"/>
<path d="M106.037 9.71417V26.2011C106.037 26.8061 105.866 27.2866 105.528 27.6387C105.19 27.9908 104.826 28.1688 104.433 28.1688C103.935 28.1688 103.481 27.9158 103.073 27.4112C102.662 26.9078 102.459 26.0854 102.459 24.9426V9.71544H91.7762V27.5129C91.7762 29.2277 91.9917 30.6476 92.4185 31.7738C92.844 32.9 93.4054 33.8076 94.0989 34.4953C94.795 35.1856 95.5867 35.6737 96.4754 35.9572C97.3667 36.2432 98.2742 36.3856 99.2006 36.3856C99.9115 36.3856 100.608 36.3106 101.282 36.1593C101.958 36.008 102.599 35.7385 103.204 35.3508C103.81 34.9657 104.354 34.4598 104.834 33.8382C105.315 33.2166 105.716 32.4526 106.037 31.5424V35.8288H116.718V9.71289H106.037V9.71417ZM122.967 6.43459H116.666C116.771 6.90746 116.843 7.34346 116.878 7.74642C116.913 8.15064 116.869 8.48623 116.745 8.75571C116.62 9.0252 116.379 9.24511 116.023 9.4129C115.668 9.58069 115.135 9.68239 114.421 9.71544H111.323L116.29 13.3967C116.435 13.3967 116.579 13.3942 116.718 13.3903C117.982 13.3471 119.015 13.1132 119.816 12.6899C120.705 12.2196 121.392 11.6311 121.872 10.9256C122.353 10.2188 122.673 9.46375 122.834 8.65529C122.994 7.84938 123.038 7.10957 122.967 6.43713V6.43459ZM112.487 0.0559235H105.622C105.736 0.570742 105.816 1.04616 105.853 1.4847C105.891 1.92452 105.844 2.29062 105.708 2.58425C105.572 2.87789 105.31 3.11687 104.922 3.29992C104.534 3.48296 103.954 3.59355 103.177 3.62914H99.8011L99.7311 7.63964C99.8887 7.63964 105.528 7.6371 105.678 7.63328C107.056 7.58625 108.182 7.33075 109.054 6.87059C110.022 6.35831 110.771 5.71765 111.293 4.94733C111.817 4.17828 112.166 3.35457 112.341 2.47366C112.516 1.5953 112.563 0.790653 112.486 0.0571959L112.487 0.0559235Z" fill="#045063"/>
<path d="M35.5937 36.2203C35.5937 37.4063 34.5758 38.3673 33.3196 38.3673C32.0633 38.3673 31.0858 37.4444 31.0467 36.2915C31.0454 36.2673 31.0454 36.2445 31.0454 36.2203C31.0454 35.0343 32.0633 34.0733 33.3196 34.0733C34.1072 34.0733 34.8034 34.4521 35.2086 35.0267C35.4524 35.3674 35.5937 35.7779 35.5937 36.2216V36.2203Z" fill="#045063"/>
</svg>
